<?xml version="1.0" standalone="no"?>
<!DOCTYPE svg PUBLIC "-//W3C//DTD SVG 20010904//EN"
 "http://www.w3.org/TR/2001/REC-SVG-20010904/DTD/svg10.dtd">
<svg version="1.0" xmlns="http://www.w3.org/2000/svg"
 width="282.000000pt" height="315.000000pt" viewBox="0 0 282.000000 315.000000"
 preserveAspectRatio="xMidYMid meet">

<g transform="translate(0.000000,315.000000) scale(0.100000,-0.100000)"
fill="#000000" stroke="none">
<path d="M970 2556 c-3 -2 -17 -7 -30 -10 -68 -13 -68 -12 -562 -513 -195
-196 -313 -324 -323 -346 -8 -20 -15 -62 -15 -93 0 -119 -13 -102 424 -541
227 -229 415 -410 436 -420 46 -22 134 -28 190 -13 40 11 85 52 443 408 259
259 404 411 417 438 22 45 27 153 10 200 -16 42 -38 65 -433 463 -336 337
-412 406 -467 419 -34 9 -85 13 -90 8z m325 -696 l290 -290 -287 -287 -287
-286 -292 292 -292 292 279 283 c153 156 284 284 289 284 6 1 141 -129 300
-288z"/>
<path d="M1795 2543 c-108 -57 -156 -170 -104 -246 12 -17 178 -188 368 -380
l345 -347 -346 -348 c-335 -336 -390 -400 -387 -451 1 -33 58 -117 98 -146 31
-22 54 -29 91 -31 28 -1 50 3 50 7 0 5 8 9 17 9 9 0 198 181 421 402 441 439
444 443 445 552 1 109 -1 112 -461 570 -231 230 -425 415 -430 412 -6 -3 -13
-2 -17 4 -9 15 -56 11 -90 -7z"/>
</g>
</svg>
